<svg xmlns="http://www.w3.org/2000/svg" version="1.1" xmlns:xlink="http://www.w3.org/1999/xlink" xmlns:svgjs="http://svgjs.dev/svgjs" width="1000" height="625" viewBox="0 0 1000 625"><g transform="matrix(1,0,0,1,0,0)"><svg viewBox="0 0 576 360" data-background-color="#000000" preserveAspectRatio="xMidYMid meet" height="625" width="1000" xmlns="http://www.w3.org/2000/svg" xmlns:xlink="http://www.w3.org/1999/xlink"><g id="tight-bounds" transform="matrix(1,0,0,1,0,0)"><svg viewBox="0 0 576 360" height="360" width="576"><g><svg></svg></g><g><svg viewBox="0 0 576 360" height="360" width="576"><g><path xmlns="http://www.w3.org/2000/svg" d="M132.115 90l155.885-90 155.885 90v180l-155.885 90-155.885-90zM144.868 262.637l143.132 82.637 143.132-82.637v-165.274l-143.132-82.637-143.132 82.637z" fill="#000000" fill-rule="nonzero" stroke="none" stroke-width="1" stroke-linecap="butt" stroke-linejoin="miter" stroke-miterlimit="10" stroke-dasharray="" stroke-dashoffset="0" font-family="none" font-weight="none" font-size="none" text-anchor="none" style="mix-blend-mode: normal" data-fill-palette-color="tertiary"></path></g><g transform="matrix(1,0,0,1,172.8,109.29357045143638)"><svg viewBox="0 0 230.4 141.41285909712724" height="141.41285909712724" width="230.4"><g><svg viewBox="0 0 230.4 141.41285909712724" height="141.41285909712724" width="230.4"><g><svg viewBox="0 0 230.4 141.41285909712724" height="141.41285909712724" width="230.4"><g><svg viewBox="0 0 230.4 141.41285909712724" height="141.41285909712724" width="230.4"><g id="textblocktransform"><svg viewBox="0 0 230.4 141.41285909712724" height="141.41285909712724" width="230.4" id="textblock"><g><svg viewBox="0 0 230.4 141.41285909712724" height="141.41285909712724" width="230.4"><g transform="matrix(1,0,0,1,0,0)"><svg width="230.4" viewBox="4.199999809265137 -32.66999816894531 53.540000915527344 32.869998931884766" height="141.41285909712724" data-palette-color="#ffffff"><path d="M10.42-9.89L10.42 0.15Q8.74 0 6.13 0L6.13 0 4.2 0 4.2-32.57 5.18-32.52Q6.2-32.47 6.71-32.47L6.71-32.47 7.42-32.47Q9.57-32.47 10.42-32.67L10.42-32.67 10.42-18.87 20.31-32.57Q21.88-32.47 22.95-32.47L22.95-32.47 24.29-32.47Q26.81-32.47 27.88-32.67L27.88-32.67 18.46-20.36 27.73-1.95Q28.32-0.61 28.83 0L28.83 0 27.34 0Q22.19 0 20.92 0.2L20.92 0.2Q20.65-1.44 20.19-2.66L20.19-2.66 13.96-14.53 10.42-9.89ZM39.91-13.79L39.91 0.15Q37.57 0 34.35 0L34.35 0 33.57 0 33.57-32.59Q35.08-32.47 35.72-32.47L35.72-32.47 36.72-32.47Q38.64-32.47 39.91-32.67L39.91-32.67 39.91-19.65 51.39-19.65 51.39-32.59Q53.42-32.47 55.33-32.47 57.25-32.47 57.74-32.67L57.74-32.67 57.74 0.15Q56.56 0 53.1 0L53.1 0 51.39 0 51.39-13.79 39.91-13.79Z" opacity="1" transform="matrix(1,0,0,1,0,0)" fill="#000000" class="undefined-text-0" data-fill-palette-color="primary" id="text-0"></path></svg></g></svg></g></svg></g></svg></g><g></g></svg></g></svg></g></svg></g></svg></g><defs></defs></svg><rect width="576" height="360" fill="none" stroke="none" visibility="hidden"></rect></g></svg></g></svg>